<svg width="760" height="760" viewBox="0 0 760 760" fill="none" xmlns="http://www.w3.org/2000/svg">
  <rect width="760" height="760" fill="white"/>
  <circle cx="348" cy="294" r="11" fill="#FFBF00"/>
  <circle cx="422" cy="285" r="18" fill="#FF7A15"/>

  <g fill="#47C0C4">
    <path d="M202 356C202 304.085 244.085 262 296 262H307C358.915 262 401 304.085 401 356V358C401 409.915 358.915 452 307 452H296C244.085 452 202 409.915 202 358V356ZM295 330C279.536 330 267 342.536 267 358C267 373.464 279.536 386 295 386H308C323.464 386 336 373.464 336 358C336 342.536 323.464 330 308 330H295Z"/>
    <path d="M339 356C339 304.085 381.085 262 433 262H444C495.915 262 538 304.085 538 356V452H473V358C473 342.536 460.464 330 445 330H432C416.536 330 404 342.536 404 358V452H339V356Z"/>
    <path d="M457 356C457 304.085 499.085 262 551 262H563C590.358 262 614.971 273.698 632.12 292.365L585.035 335.633C579.904 332.047 573.666 329.941 566.935 329.941H551C535.536 329.941 523 342.477 523 357.941C523 373.405 535.536 385.941 551 385.941H564.699L535.691 359.967L579.753 318.893L650.848 381.947C633.6 424.246 595.996 454 551.446 454H551C499.085 454 457 411.915 457 360V356Z"/>
    <path d="M575 404H603V430H627V458H603V484H575V458H549V430H575V404Z" transform="translate(-5 -3) scale(0.7)"/>
  </g>

  <text x="380" y="542" text-anchor="middle" font-family="Noto Sans Lao, sans-serif" font-size="27" font-weight="500" fill="#56C3C2">ສູນການແພດ ວັນເມດິໂກ ແອນ ແວວເນດ</text>
  <text x="380" y="580" text-anchor="middle" font-family="Noto Sans Lao, sans-serif" font-size="20" font-weight="400" fill="#7BC9CA">One Medical and Wellness Center</text>
</svg>